# Tiled2Unity generated file. Do not modify by hand.
# Wavefront file for 'Level-2_mesh_0003.obj'

# Vertices (Count = 116)
v -5792 -32 0
v -5824 -32 0
v -5824 0 0
v -5792 0 0
v -5824 -32 0
v -5856 -32 0
v -5856 0 0
v -5824 0 0
v -5856 -32 0
v -5888 -32 0
v -5888 0 0
v -5856 0 0
v -5728 -256 0
v -5760 -256 0
v -5760 -224 0
v -5728 -224 0
v -5152 -288 0
v -5184 -288 0
v -5184 -256 0
v -5152 -256 0
v -5184 -288 0
v -5216 -288 0
v -5216 -256 0
v -5184 -256 0
v -5216 -288 0
v -5248 -288 0
v -5248 -256 0
v -5216 -256 0
v -2016 -320 0
v -2048 -320 0
v -2048 -288 0
v -2016 -288 0
v -2048 -320 0
v -2080 -320 0
v -2080 -288 0
v -2048 -288 0
v -5824 -384 0
v -5856 -384 0
v -5856 -352 0
v -5824 -352 0
v -5856 -384 0
v -5888 -384 0
v -5888 -352 0
v -5856 -352 0
v -5888 -384 0
v -5920 -384 0
v -5920 -352 0
v -5888 -352 0
v -1632 -416 0
v -1664 -416 0
v -1664 -384 0
v -1632 -384 0
v -1664 -416 0
v -1696 -416 0
v -1696 -384 0
v -1664 -384 0
v -1696 -416 0
v -1728 -416 0
v -1728 -384 0
v -1696 -384 0
v -2816 -416 0
v -2848 -416 0
v -2848 -384 0
v -2816 -384 0
v -3008 -416 0
v -3040 -416 0
v -3040 -384 0
v -3008 -384 0
v -3040 -416 0
v -3072 -416 0
v -3072 -384 0
v -3040 -384 0
v -3072 -416 0
v -3104 -416 0
v -3104 -384 0
v -3072 -384 0
v -3776 -416 0
v -3808 -416 0
v -3808 -384 0
v -3776 -384 0
v -3808 -416 0
v -3840 -416 0
v -3840 -384 0
v -3808 -384 0
v -3840 -416 0
v -3872 -416 0
v -3872 -384 0
v -3840 -384 0
v -4096 -416 0
v -4128 -416 0
v -4128 -384 0
v -4096 -384 0
v -4128 -416 0
v -4160 -416 0
v -4160 -384 0
v -4128 -384 0
v -4160 -416 0
v -4192 -416 0
v -4192 -384 0
v -4160 -384 0
v -4416 -416 0
v -4448 -416 0
v -4448 -384 0
v -4416 -384 0
v -4448 -416 0
v -4480 -416 0
v -4480 -384 0
v -4448 -384 0
v -4480 -416 0
v -4512 -416 0
v -4512 -384 0
v -4480 -384 0
v -2272 -448 0
v -2304 -448 0
v -2304 -416 0
v -2272 -416 0

# Texture cooridinates (Count = 10)
vt 0.25 0
vt 0.5 0
vt 0.5 1
vt 0.25 1
vt 0.75 0
vt 0.75 1
vt 1 0
vt 1 1
vt 0 0
vt 0 1

# Normal
vn 0 0 -1

# Mesh description
g Level-2_mesh_0003

# Faces
f 1/1/1 2/2/1 3/3/1 4/4/1
f 5/2/1 6/5/1 7/6/1 8/3/1
f 9/5/1 10/7/1 11/8/1 12/6/1
f 13/9/1 14/1/1 15/4/1 16/10/1
f 17/1/1 18/2/1 19/3/1 20/4/1
f 21/2/1 22/5/1 23/6/1 24/3/1
f 25/5/1 26/7/1 27/8/1 28/6/1
f 29/9/1 30/1/1 31/4/1 32/10/1
f 33/9/1 34/1/1 35/4/1 36/10/1
f 37/1/1 38/2/1 39/3/1 40/4/1
f 41/2/1 42/5/1 43/6/1 44/3/1
f 45/5/1 46/7/1 47/8/1 48/6/1
f 49/9/1 50/1/1 51/4/1 52/10/1
f 53/9/1 54/1/1 55/4/1 56/10/1
f 57/9/1 58/1/1 59/4/1 60/10/1
f 61/9/1 62/1/1 63/4/1 64/10/1
f 65/1/1 66/2/1 67/3/1 68/4/1
f 69/2/1 70/5/1 71/6/1 72/3/1
f 73/5/1 74/7/1 75/8/1 76/6/1
f 77/1/1 78/2/1 79/3/1 80/4/1
f 81/2/1 82/5/1 83/6/1 84/3/1
f 85/5/1 86/7/1 87/8/1 88/6/1
f 89/1/1 90/2/1 91/3/1 92/4/1
f 93/2/1 94/5/1 95/6/1 96/3/1
f 97/5/1 98/7/1 99/8/1 100/6/1
f 101/1/1 102/2/1 103/3/1 104/4/1
f 105/2/1 106/5/1 107/6/1 108/3/1
f 109/5/1 110/7/1 111/8/1 112/6/1
f 113/9/1 114/1/1 115/4/1 116/10/1

