# Tiled2Unity generated file. Do not modify by hand.
# Wavefront file for 'Level-10_mesh_0003.obj'

# Vertices (Count = 36)
v -3808 -224 0
v -3840 -224 0
v -3840 -192 0
v -3808 -192 0
v -2432 -320 0
v -2464 -320 0
v -2464 -288 0
v -2432 -288 0
v -256 -352 0
v -288 -352 0
v -288 -320 0
v -256 -320 0
v -1984 -352 0
v -2016 -352 0
v -2016 -320 0
v -1984 -320 0
v -576 -384 0
v -608 -384 0
v -608 -352 0
v -576 -352 0
v -160 -416 0
v -192 -416 0
v -192 -384 0
v -160 -384 0
v -2240 -416 0
v -2272 -416 0
v -2272 -384 0
v -2240 -384 0
v -928 -480 0
v -960 -480 0
v -960 -448 0
v -928 -448 0
v -1024 -576 0
v -1056 -576 0
v -1056 -544 0
v -1024 -544 0

# Texture cooridinates (Count = 4)
vt 0 0
vt 1 0
vt 1 1
vt 0 1

# Normal
vn 0 0 -1

# Mesh description
g Level-10_mesh_0003

# Faces
f 1/1/1 2/2/1 3/3/1 4/4/1
f 5/1/1 6/2/1 7/3/1 8/4/1
f 9/1/1 10/2/1 11/3/1 12/4/1
f 13/1/1 14/2/1 15/3/1 16/4/1
f 17/1/1 18/2/1 19/3/1 20/4/1
f 21/1/1 22/2/1 23/3/1 24/4/1
f 25/1/1 26/2/1 27/3/1 28/4/1
f 29/1/1 30/2/1 31/3/1 32/4/1
f 33/1/1 34/2/1 35/3/1 36/4/1

