# Tiled2Unity generated file. Do not modify by hand.
# Wavefront file for 'Level-7_mesh_0005.obj'

# Vertices (Count = 72)
v -4832 -288 0
v -4864 -288 0
v -4864 -256 0
v -4832 -256 0
v -5088 -288 0
v -5120 -288 0
v -5120 -256 0
v -5088 -256 0
v -4768 -320 0
v -4800 -320 0
v -4800 -288 0
v -4768 -288 0
v -1504 -352 0
v -1536 -352 0
v -1536 -320 0
v -1504 -320 0
v -3552 -352 0
v -3584 -352 0
v -3584 -320 0
v -3552 -320 0
v -3808 -352 0
v -3840 -352 0
v -3840 -320 0
v -3808 -320 0
v -2912 -384 0
v -2944 -384 0
v -2944 -352 0
v -2912 -352 0
v -3168 -384 0
v -3200 -384 0
v -3200 -352 0
v -3168 -352 0
v -3488 -384 0
v -3520 -384 0
v -3520 -352 0
v -3488 -352 0
v -2848 -416 0
v -2880 -416 0
v -2880 -384 0
v -2848 -384 0
v -2016 -480 0
v -2048 -480 0
v -2048 -448 0
v -2016 -448 0
v -2272 -480 0
v -2304 -480 0
v -2304 -448 0
v -2272 -448 0
v -864 -512 0
v -896 -512 0
v -896 -480 0
v -864 -480 0
v -672 -544 0
v -704 -544 0
v -704 -512 0
v -672 -512 0
v -4192 -544 0
v -4224 -544 0
v -4224 -512 0
v -4192 -512 0
v -4448 -544 0
v -4480 -544 0
v -4480 -512 0
v -4448 -512 0
v -2016 -576 0
v -2048 -576 0
v -2048 -544 0
v -2016 -544 0
v -4128 -576 0
v -4160 -576 0
v -4160 -544 0
v -4128 -544 0

# Texture cooridinates (Count = 4)
vt 0 0
vt 1 0
vt 1 1
vt 0 1

# Normal
vn 0 0 -1

# Mesh description
g Level-7_mesh_0005

# Faces
f 1/1/1 2/2/1 3/3/1 4/4/1
f 5/1/1 6/2/1 7/3/1 8/4/1
f 9/1/1 10/2/1 11/3/1 12/4/1
f 13/1/1 14/2/1 15/3/1 16/4/1
f 17/1/1 18/2/1 19/3/1 20/4/1
f 21/1/1 22/2/1 23/3/1 24/4/1
f 25/1/1 26/2/1 27/3/1 28/4/1
f 29/1/1 30/2/1 31/3/1 32/4/1
f 33/1/1 34/2/1 35/3/1 36/4/1
f 37/1/1 38/2/1 39/3/1 40/4/1
f 41/1/1 42/2/1 43/3/1 44/4/1
f 45/1/1 46/2/1 47/3/1 48/4/1
f 49/1/1 50/2/1 51/3/1 52/4/1
f 53/1/1 54/2/1 55/3/1 56/4/1
f 57/1/1 58/2/1 59/3/1 60/4/1
f 61/1/1 62/2/1 63/3/1 64/4/1
f 65/1/1 66/2/1 67/3/1 68/4/1
f 69/1/1 70/2/1 71/3/1 72/4/1

