# Tiled2Unity generated file. Do not modify by hand.
# Wavefront file for 'Level-7_mesh_0006.obj'

# Vertices (Count = 12)
v -4768 -416 0
v -4800 -416 0
v -4800 -384 0
v -4768 -384 0
v -3488 -480 0
v -3520 -480 0
v -3520 -448 0
v -3488 -448 0
v -2848 -512 0
v -2880 -512 0
v -2880 -480 0
v -2848 -480 0

# Texture cooridinates (Count = 4)
vt 0 0
vt 1 0
vt 1 1
vt 0 1

# Normal
vn 0 0 -1

# Mesh description
g Level-7_mesh_0006

# Faces
f 1/1/1 2/2/1 3/3/1 4/4/1
f 5/1/1 6/2/1 7/3/1 8/4/1
f 9/1/1 10/2/1 11/3/1 12/4/1

