# Tiled2Unity generated file. Do not modify by hand.
# Wavefront file for 'Level-7_mesh_0003.obj'

# Vertices (Count = 32)
v -416 -192 0
v -448 -192 0
v -448 -160 0
v -416 -160 0
v -608 -288 0
v -640 -288 0
v -640 -256 0
v -608 -256 0
v -1088 -320 0
v -1120 -320 0
v -1120 -288 0
v -1088 -288 0
v -1728 -352 0
v -1760 -352 0
v -1760 -320 0
v -1728 -320 0
v -1280 -416 0
v -1312 -416 0
v -1312 -384 0
v -1280 -384 0
v -1920 -448 0
v -1952 -448 0
v -1952 -416 0
v -1920 -416 0
v -2432 -480 0
v -2464 -480 0
v -2464 -448 0
v -2432 -448 0
v -2624 -576 0
v -2656 -576 0
v -2656 -544 0
v -2624 -544 0

# Texture cooridinates (Count = 4)
vt 0 0
vt 1 0
vt 1 1
vt 0 1

# Normal
vn 0 0 -1

# Mesh description
g Level-7_mesh_0003

# Faces
f 1/1/1 2/2/1 3/3/1 4/4/1
f 5/1/1 6/2/1 7/3/1 8/4/1
f 9/1/1 10/2/1 11/3/1 12/4/1
f 13/1/1 14/2/1 15/3/1 16/4/1
f 17/1/1 18/2/1 19/3/1 20/4/1
f 21/1/1 22/2/1 23/3/1 24/4/1
f 25/1/1 26/2/1 27/3/1 28/4/1
f 29/1/1 30/2/1 31/3/1 32/4/1

