# Tiled2Unity generated file. Do not modify by hand.
# Wavefront file for 'TutorialEnemiesLevel-copy_mesh_0002.obj'

# Vertices (Count = 12)
v -1312 -576 0
v -1344 -576 0
v -1344 -544 0
v -1312 -544 0
v -1344 -576 0
v -1376 -576 0
v -1376 -544 0
v -1344 -544 0
v -1376 -576 0
v -1408 -576 0
v -1408 -544 0
v -1376 -544 0

# Texture cooridinates (Count = 4)
vt 0 0.5428572
vt 0.4571429 0.5428572
vt 0.4571429 1
vt 0 1

# Normal
vn 0 0 -1

# Mesh description
g TutorialEnemiesLevel-copy_mesh_0002

# Faces
f 1/1/1 2/2/1 3/3/1 4/4/1
f 5/1/1 6/2/1 7/3/1 8/4/1
f 9/1/1 10/2/1 11/3/1 12/4/1

