# Tiled2Unity generated file. Do not modify by hand.
# Wavefront file for 'Level-8_mesh_0005.obj'

# Vertices (Count = 20)
v -288 -480 0
v -320 -480 0
v -320 -448 0
v -288 -448 0
v -640 -544 0
v -672 -544 0
v -672 -512 0
v -640 -512 0
v -6112 -576 0
v -6144 -576 0
v -6144 -544 0
v -6112 -544 0
v -5920 -608 0
v -5952 -608 0
v -5952 -576 0
v -5920 -576 0
v -5632 -640 0
v -5664 -640 0
v -5664 -608 0
v -5632 -608 0

# Texture cooridinates (Count = 4)
vt 0 0
vt 1 0
vt 1 1
vt 0 1

# Normal
vn 0 0 -1

# Mesh description
g Level-8_mesh_0005

# Faces
f 1/1/1 2/2/1 3/3/1 4/4/1
f 5/1/1 6/2/1 7/3/1 8/4/1
f 9/1/1 10/2/1 11/3/1 12/4/1
f 13/1/1 14/2/1 15/3/1 16/4/1
f 17/1/1 18/2/1 19/3/1 20/4/1

