# Tiled2Unity generated file. Do not modify by hand.
# Wavefront file for 'Level-8_mesh_0004.obj'

# Vertices (Count = 796)
v -5312 -288 0
v -5344 -288 0
v -5344 -256 0
v -5312 -256 0
v -5344 -288 0
v -5376 -288 0
v -5376 -256 0
v -5344 -256 0
v -5376 -288 0
v -5408 -288 0
v -5408 -256 0
v -5376 -256 0
v -6048 -320 0
v -6080 -320 0
v -6080 -288 0
v -6048 -288 0
v -6080 -320 0
v -6112 -320 0
v -6112 -288 0
v -6080 -288 0
v -6112 -320 0
v -6144 -320 0
v -6144 -288 0
v -6112 -288 0
v -4832 -352 0
v -4864 -352 0
v -4864 -320 0
v -4832 -320 0
v -4864 -352 0
v -4896 -352 0
v -4896 -320 0
v -4864 -320 0
v -4896 -352 0
v -4928 -352 0
v -4928 -320 0
v -4896 -320 0
v -5504 -384 0
v -5536 -384 0
v -5536 -352 0
v -5504 -352 0
v -5536 -384 0
v -5568 -384 0
v -5568 -352 0
v -5536 -352 0
v -5568 -384 0
v -5600 -384 0
v -5600 -352 0
v -5568 -352 0
v -6016 -416 0
v -6048 -416 0
v -6048 -384 0
v -6016 -384 0
v -6048 -416 0
v -6080 -416 0
v -6080 -384 0
v -6048 -384 0
v -6240 -416 0
v -6272 -416 0
v -6272 -384 0
v -6240 -384 0
v -6272 -416 0
v -6304 -416 0
v -6304 -384 0
v -6272 -384 0
v -6304 -416 0
v -6336 -416 0
v -6336 -384 0
v -6304 -384 0
v -5024 -448 0
v -5056 -448 0
v -5056 -416 0
v -5024 -416 0
v -5056 -448 0
v -5088 -448 0
v -5088 -416 0
v -5056 -416 0
v -5088 -448 0
v -5120 -448 0
v -5120 -416 0
v -5088 -416 0
v -5504 -480 0
v -5536 -480 0
v -5536 -448 0
v -5504 -448 0
v -5568 -480 0
v -5600 -480 0
v -5600 -448 0
v -5568 -448 0
v -1728 -544 0
v -1760 -544 0
v -1760 -512 0
v -1728 -512 0
v -1760 -544 0
v -1792 -544 0
v -1792 -512 0
v -1760 -512 0
v -1792 -544 0
v -1824 -544 0
v -1824 -512 0
v -1792 -512 0
v -2560 -576 0
v -2592 -576 0
v -2592 -544 0
v -2560 -544 0
v -2592 -576 0
v -2624 -576 0
v -2624 -544 0
v -2592 -544 0
v -2624 -576 0
v -2656 -576 0
v -2656 -544 0
v -2624 -544 0
v 0 -640 0
v -32 -640 0
v -32 -608 0
v 0 -608 0
v -32 -640 0
v -64 -640 0
v -64 -608 0
v -32 -608 0
v -64 -640 0
v -96 -640 0
v -96 -608 0
v -64 -608 0
v -96 -640 0
v -128 -640 0
v -128 -608 0
v -96 -608 0
v -128 -640 0
v -160 -640 0
v -160 -608 0
v -128 -608 0
v -160 -640 0
v -192 -640 0
v -192 -608 0
v -160 -608 0
v -192 -640 0
v -224 -640 0
v -224 -608 0
v -192 -608 0
v -224 -640 0
v -256 -640 0
v -256 -608 0
v -224 -608 0
v -256 -640 0
v -288 -640 0
v -288 -608 0
v -256 -608 0
v -288 -640 0
v -320 -640 0
v -320 -608 0
v -288 -608 0
v -320 -640 0
v -352 -640 0
v -352 -608 0
v -320 -608 0
v -352 -640 0
v -384 -640 0
v -384 -608 0
v -352 -608 0
v -384 -640 0
v -416 -640 0
v -416 -608 0
v -384 -608 0
v -416 -640 0
v -448 -640 0
v -448 -608 0
v -416 -608 0
v -448 -640 0
v -480 -640 0
v -480 -608 0
v -448 -608 0
v -480 -640 0
v -512 -640 0
v -512 -608 0
v -480 -608 0
v -512 -640 0
v -544 -640 0
v -544 -608 0
v -512 -608 0
v -544 -640 0
v -576 -640 0
v -576 -608 0
v -544 -608 0
v -576 -640 0
v -608 -640 0
v -608 -608 0
v -576 -608 0
v -608 -640 0
v -640 -640 0
v -640 -608 0
v -608 -608 0
v -640 -640 0
v -672 -640 0
v -672 -608 0
v -640 -608 0
v -672 -640 0
v -704 -640 0
v -704 -608 0
v -672 -608 0
v -704 -640 0
v -736 -640 0
v -736 -608 0
v -704 -608 0
v -736 -640 0
v -768 -640 0
v -768 -608 0
v -736 -608 0
v -768 -640 0
v -800 -640 0
v -800 -608 0
v -768 -608 0
v -800 -640 0
v -832 -640 0
v -832 -608 0
v -800 -608 0
v -832 -640 0
v -864 -640 0
v -864 -608 0
v -832 -608 0
v -864 -640 0
v -896 -640 0
v -896 -608 0
v -864 -608 0
v -896 -640 0
v -928 -640 0
v -928 -608 0
v -896 -608 0
v -928 -640 0
v -960 -640 0
v -960 -608 0
v -928 -608 0
v -960 -640 0
v -992 -640 0
v -992 -608 0
v -960 -608 0
v -992 -640 0
v -1024 -640 0
v -1024 -608 0
v -992 -608 0
v -1024 -640 0
v -1056 -640 0
v -1056 -608 0
v -1024 -608 0
v -1056 -640 0
v -1088 -640 0
v -1088 -608 0
v -1056 -608 0
v -1088 -640 0
v -1120 -640 0
v -1120 -608 0
v -1088 -608 0
v -1120 -640 0
v -1152 -640 0
v -1152 -608 0
v -1120 -608 0
v -1152 -640 0
v -1184 -640 0
v -1184 -608 0
v -1152 -608 0
v -1184 -640 0
v -1216 -640 0
v -1216 -608 0
v -1184 -608 0
v -1216 -640 0
v -1248 -640 0
v -1248 -608 0
v -1216 -608 0
v -1248 -640 0
v -1280 -640 0
v -1280 -608 0
v -1248 -608 0
v -1280 -640 0
v -1312 -640 0
v -1312 -608 0
v -1280 -608 0
v -1312 -640 0
v -1344 -640 0
v -1344 -608 0
v -1312 -608 0
v -1344 -640 0
v -1376 -640 0
v -1376 -608 0
v -1344 -608 0
v -1376 -640 0
v -1408 -640 0
v -1408 -608 0
v -1376 -608 0
v -1408 -640 0
v -1440 -640 0
v -1440 -608 0
v -1408 -608 0
v -1440 -640 0
v -1472 -640 0
v -1472 -608 0
v -1440 -608 0
v -1472 -640 0
v -1504 -640 0
v -1504 -608 0
v -1472 -608 0
v -1504 -640 0
v -1536 -640 0
v -1536 -608 0
v -1504 -608 0
v -1536 -640 0
v -1568 -640 0
v -1568 -608 0
v -1536 -608 0
v -1568 -640 0
v -1600 -640 0
v -1600 -608 0
v -1568 -608 0
v -1600 -640 0
v -1632 -640 0
v -1632 -608 0
v -1600 -608 0
v -1632 -640 0
v -1664 -640 0
v -1664 -608 0
v -1632 -608 0
v -1664 -640 0
v -1696 -640 0
v -1696 -608 0
v -1664 -608 0
v -1696 -640 0
v -1728 -640 0
v -1728 -608 0
v -1696 -608 0
v -1728 -640 0
v -1760 -640 0
v -1760 -608 0
v -1728 -608 0
v -1760 -640 0
v -1792 -640 0
v -1792 -608 0
v -1760 -608 0
v -1792 -640 0
v -1824 -640 0
v -1824 -608 0
v -1792 -608 0
v -1824 -640 0
v -1856 -640 0
v -1856 -608 0
v -1824 -608 0
v -1856 -640 0
v -1888 -640 0
v -1888 -608 0
v -1856 -608 0
v -1888 -640 0
v -1920 -640 0
v -1920 -608 0
v -1888 -608 0
v -1920 -640 0
v -1952 -640 0
v -1952 -608 0
v -1920 -608 0
v -1952 -640 0
v -1984 -640 0
v -1984 -608 0
v -1952 -608 0
v -1984 -640 0
v -2016 -640 0
v -2016 -608 0
v -1984 -608 0
v -2016 -640 0
v -2048 -640 0
v -2048 -608 0
v -2016 -608 0
v -2048 -640 0
v -2080 -640 0
v -2080 -608 0
v -2048 -608 0
v -2080 -640 0
v -2112 -640 0
v -2112 -608 0
v -2080 -608 0
v -2112 -640 0
v -2144 -640 0
v -2144 -608 0
v -2112 -608 0
v -2144 -640 0
v -2176 -640 0
v -2176 -608 0
v -2144 -608 0
v -2176 -640 0
v -2208 -640 0
v -2208 -608 0
v -2176 -608 0
v -2208 -640 0
v -2240 -640 0
v -2240 -608 0
v -2208 -608 0
v -2240 -640 0
v -2272 -640 0
v -2272 -608 0
v -2240 -608 0
v -2272 -640 0
v -2304 -640 0
v -2304 -608 0
v -2272 -608 0
v -2304 -640 0
v -2336 -640 0
v -2336 -608 0
v -2304 -608 0
v -2336 -640 0
v -2368 -640 0
v -2368 -608 0
v -2336 -608 0
v -2368 -640 0
v -2400 -640 0
v -2400 -608 0
v -2368 -608 0
v -2400 -640 0
v -2432 -640 0
v -2432 -608 0
v -2400 -608 0
v -2432 -640 0
v -2464 -640 0
v -2464 -608 0
v -2432 -608 0
v -2464 -640 0
v -2496 -640 0
v -2496 -608 0
v -2464 -608 0
v -2496 -640 0
v -2528 -640 0
v -2528 -608 0
v -2496 -608 0
v -2528 -640 0
v -2560 -640 0
v -2560 -608 0
v -2528 -608 0
v -2560 -640 0
v -2592 -640 0
v -2592 -608 0
v -2560 -608 0
v -2592 -640 0
v -2624 -640 0
v -2624 -608 0
v -2592 -608 0
v -2624 -640 0
v -2656 -640 0
v -2656 -608 0
v -2624 -608 0
v -2656 -640 0
v -2688 -640 0
v -2688 -608 0
v -2656 -608 0
v -2688 -640 0
v -2720 -640 0
v -2720 -608 0
v -2688 -608 0
v -2720 -640 0
v -2752 -640 0
v -2752 -608 0
v -2720 -608 0
v -2752 -640 0
v -2784 -640 0
v -2784 -608 0
v -2752 -608 0
v -2784 -640 0
v -2816 -640 0
v -2816 -608 0
v -2784 -608 0
v -2816 -640 0
v -2848 -640 0
v -2848 -608 0
v -2816 -608 0
v -2848 -640 0
v -2880 -640 0
v -2880 -608 0
v -2848 -608 0
v -2880 -640 0
v -2912 -640 0
v -2912 -608 0
v -2880 -608 0
v -2912 -640 0
v -2944 -640 0
v -2944 -608 0
v -2912 -608 0
v -2944 -640 0
v -2976 -640 0
v -2976 -608 0
v -2944 -608 0
v -2976 -640 0
v -3008 -640 0
v -3008 -608 0
v -2976 -608 0
v -3008 -640 0
v -3040 -640 0
v -3040 -608 0
v -3008 -608 0
v -3040 -640 0
v -3072 -640 0
v -3072 -608 0
v -3040 -608 0
v -3072 -640 0
v -3104 -640 0
v -3104 -608 0
v -3072 -608 0
v -3104 -640 0
v -3136 -640 0
v -3136 -608 0
v -3104 -608 0
v -3136 -640 0
v -3168 -640 0
v -3168 -608 0
v -3136 -608 0
v -3168 -640 0
v -3200 -640 0
v -3200 -608 0
v -3168 -608 0
v -3200 -640 0
v -3232 -640 0
v -3232 -608 0
v -3200 -608 0
v -3232 -640 0
v -3264 -640 0
v -3264 -608 0
v -3232 -608 0
v -3264 -640 0
v -3296 -640 0
v -3296 -608 0
v -3264 -608 0
v -3296 -640 0
v -3328 -640 0
v -3328 -608 0
v -3296 -608 0
v -3328 -640 0
v -3360 -640 0
v -3360 -608 0
v -3328 -608 0
v -3360 -640 0
v -3392 -640 0
v -3392 -608 0
v -3360 -608 0
v -3392 -640 0
v -3424 -640 0
v -3424 -608 0
v -3392 -608 0
v -3424 -640 0
v -3456 -640 0
v -3456 -608 0
v -3424 -608 0
v -3520 -640 0
v -3552 -640 0
v -3552 -608 0
v -3520 -608 0
v -3552 -640 0
v -3584 -640 0
v -3584 -608 0
v -3552 -608 0
v -3584 -640 0
v -3616 -640 0
v -3616 -608 0
v -3584 -608 0
v -3616 -640 0
v -3648 -640 0
v -3648 -608 0
v -3616 -608 0
v -3712 -640 0
v -3744 -640 0
v -3744 -608 0
v -3712 -608 0
v -3744 -640 0
v -3776 -640 0
v -3776 -608 0
v -3744 -608 0
v -3776 -640 0
v -3808 -640 0
v -3808 -608 0
v -3776 -608 0
v -3808 -640 0
v -3840 -640 0
v -3840 -608 0
v -3808 -608 0
v -3840 -640 0
v -3872 -640 0
v -3872 -608 0
v -3840 -608 0
v -3872 -640 0
v -3904 -640 0
v -3904 -608 0
v -3872 -608 0
v -3904 -640 0
v -3936 -640 0
v -3936 -608 0
v -3904 -608 0
v -3936 -640 0
v -3968 -640 0
v -3968 -608 0
v -3936 -608 0
v -3968 -640 0
v -4000 -640 0
v -4000 -608 0
v -3968 -608 0
v -4000 -640 0
v -4032 -640 0
v -4032 -608 0
v -4000 -608 0
v -4096 -640 0
v -4128 -640 0
v -4128 -608 0
v -4096 -608 0
v -4128 -640 0
v -4160 -640 0
v -4160 -608 0
v -4128 -608 0
v -4224 -640 0
v -4256 -640 0
v -4256 -608 0
v -4224 -608 0
v -4256 -640 0
v -4288 -640 0
v -4288 -608 0
v -4256 -608 0
v -4352 -640 0
v -4384 -640 0
v -4384 -608 0
v -4352 -608 0
v -4384 -640 0
v -4416 -640 0
v -4416 -608 0
v -4384 -608 0
v -4480 -640 0
v -4512 -640 0
v -4512 -608 0
v -4480 -608 0
v -4512 -640 0
v -4544 -640 0
v -4544 -608 0
v -4512 -608 0
v -4608 -640 0
v -4640 -640 0
v -4640 -608 0
v -4608 -608 0
v -4640 -640 0
v -4672 -640 0
v -4672 -608 0
v -4640 -608 0
v -4736 -640 0
v -4768 -640 0
v -4768 -608 0
v -4736 -608 0
v -4800 -640 0
v -4832 -640 0
v -4832 -608 0
v -4800 -608 0
v -4832 -640 0
v -4864 -640 0
v -4864 -608 0
v -4832 -608 0
v -4864 -640 0
v -4896 -640 0
v -4896 -608 0
v -4864 -608 0
v -4896 -640 0
v -4928 -640 0
v -4928 -608 0
v -4896 -608 0
v -4928 -640 0
v -4960 -640 0
v -4960 -608 0
v -4928 -608 0
v -4960 -640 0
v -4992 -640 0
v -4992 -608 0
v -4960 -608 0
v -5088 -640 0
v -5120 -640 0
v -5120 -608 0
v -5088 -608 0
v -5120 -640 0
v -5152 -640 0
v -5152 -608 0
v -5120 -608 0
v -5152 -640 0
v -5184 -640 0
v -5184 -608 0
v -5152 -608 0
v -5184 -640 0
v -5216 -640 0
v -5216 -608 0
v -5184 -608 0
v -5216 -640 0
v -5248 -640 0
v -5248 -608 0
v -5216 -608 0
v -5280 -640 0
v -5312 -640 0
v -5312 -608 0
v -5280 -608 0
v -5312 -640 0
v -5344 -640 0
v -5344 -608 0
v -5312 -608 0
v -5344 -640 0
v -5376 -640 0
v -5376 -608 0
v -5344 -608 0
v -5440 -640 0
v -5472 -640 0
v -5472 -608 0
v -5440 -608 0
v -5472 -640 0
v -5504 -640 0
v -5504 -608 0
v -5472 -608 0
v -5504 -640 0
v -5536 -640 0
v -5536 -608 0
v -5504 -608 0
v -5568 -640 0
v -5600 -640 0
v -5600 -608 0
v -5568 -608 0
v -5600 -640 0
v -5632 -640 0
v -5632 -608 0
v -5600 -608 0
v -5664 -640 0
v -5696 -640 0
v -5696 -608 0
v -5664 -608 0
v -5696 -640 0
v -5728 -640 0
v -5728 -608 0
v -5696 -608 0
v -5728 -640 0
v -5760 -640 0
v -5760 -608 0
v -5728 -608 0
v -5760 -640 0
v -5792 -640 0
v -5792 -608 0
v -5760 -608 0
v -5792 -640 0
v -5824 -640 0
v -5824 -608 0
v -5792 -608 0
v -5824 -640 0
v -5856 -640 0
v -5856 -608 0
v -5824 -608 0
v -5856 -640 0
v -5888 -640 0
v -5888 -608 0
v -5856 -608 0
v -5888 -640 0
v -5920 -640 0
v -5920 -608 0
v -5888 -608 0
v -5952 -640 0
v -5984 -640 0
v -5984 -608 0
v -5952 -608 0
v -6048 -640 0
v -6080 -640 0
v -6080 -608 0
v -6048 -608 0
v -6080 -640 0
v -6112 -640 0
v -6112 -608 0
v -6080 -608 0
v -6112 -640 0
v -6144 -640 0
v -6144 -608 0
v -6112 -608 0
v -6144 -640 0
v -6176 -640 0
v -6176 -608 0
v -6144 -608 0
v -6176 -640 0
v -6208 -640 0
v -6208 -608 0
v -6176 -608 0
v -6208 -640 0
v -6240 -640 0
v -6240 -608 0
v -6208 -608 0
v -6240 -640 0
v -6272 -640 0
v -6272 -608 0
v -6240 -608 0
v -6304 -640 0
v -6336 -640 0
v -6336 -608 0
v -6304 -608 0
v -6336 -640 0
v -6368 -640 0
v -6368 -608 0
v -6336 -608 0
v -6368 -640 0
v -6400 -640 0
v -6400 -608 0
v -6368 -608 0

# Texture cooridinates (Count = 10)
vt 0.25 0
vt 0.5 0
vt 0.5 1
vt 0.25 1
vt 0.75 0
vt 0.75 1
vt 1 0
vt 1 1
vt 0 0
vt 0 1

# Normal
vn 0 0 -1

# Mesh description
g Level-8_mesh_0004

# Faces
f 1/1/1 2/2/1 3/3/1 4/4/1
f 5/2/1 6/5/1 7/6/1 8/3/1
f 9/5/1 10/7/1 11/8/1 12/6/1
f 13/1/1 14/2/1 15/3/1 16/4/1
f 17/2/1 18/5/1 19/6/1 20/3/1
f 21/5/1 22/7/1 23/8/1 24/6/1
f 25/1/1 26/2/1 27/3/1 28/4/1
f 29/2/1 30/5/1 31/6/1 32/3/1
f 33/5/1 34/7/1 35/8/1 36/6/1
f 37/1/1 38/2/1 39/3/1 40/4/1
f 41/2/1 42/5/1 43/6/1 44/3/1
f 45/5/1 46/7/1 47/8/1 48/6/1
f 49/2/1 50/5/1 51/6/1 52/3/1
f 53/5/1 54/7/1 55/8/1 56/6/1
f 57/1/1 58/2/1 59/3/1 60/4/1
f 61/2/1 62/5/1 63/6/1 64/3/1
f 65/5/1 66/7/1 67/8/1 68/6/1
f 69/1/1 70/2/1 71/3/1 72/4/1
f 73/2/1 74/5/1 75/6/1 76/3/1
f 77/5/1 78/7/1 79/8/1 80/6/1
f 81/1/1 82/2/1 83/3/1 84/4/1
f 85/5/1 86/7/1 87/8/1 88/6/1
f 89/1/1 90/2/1 91/3/1 92/4/1
f 93/2/1 94/5/1 95/6/1 96/3/1
f 97/5/1 98/7/1 99/8/1 100/6/1
f 101/1/1 102/2/1 103/3/1 104/4/1
f 105/2/1 106/5/1 107/6/1 108/3/1
f 109/5/1 110/7/1 111/8/1 112/6/1
f 113/9/1 114/1/1 115/4/1 116/10/1
f 117/9/1 118/1/1 119/4/1 120/10/1
f 121/9/1 122/1/1 123/4/1 124/10/1
f 125/9/1 126/1/1 127/4/1 128/10/1
f 129/9/1 130/1/1 131/4/1 132/10/1
f 133/9/1 134/1/1 135/4/1 136/10/1
f 137/9/1 138/1/1 139/4/1 140/10/1
f 141/9/1 142/1/1 143/4/1 144/10/1
f 145/9/1 146/1/1 147/4/1 148/10/1
f 149/9/1 150/1/1 151/4/1 152/10/1
f 153/9/1 154/1/1 155/4/1 156/10/1
f 157/9/1 158/1/1 159/4/1 160/10/1
f 161/9/1 162/1/1 163/4/1 164/10/1
f 165/9/1 166/1/1 167/4/1 168/10/1
f 169/9/1 170/1/1 171/4/1 172/10/1
f 173/9/1 174/1/1 175/4/1 176/10/1
f 177/9/1 178/1/1 179/4/1 180/10/1
f 181/9/1 182/1/1 183/4/1 184/10/1
f 185/9/1 186/1/1 187/4/1 188/10/1
f 189/9/1 190/1/1 191/4/1 192/10/1
f 193/9/1 194/1/1 195/4/1 196/10/1
f 197/9/1 198/1/1 199/4/1 200/10/1
f 201/9/1 202/1/1 203/4/1 204/10/1
f 205/9/1 206/1/1 207/4/1 208/10/1
f 209/9/1 210/1/1 211/4/1 212/10/1
f 213/9/1 214/1/1 215/4/1 216/10/1
f 217/9/1 218/1/1 219/4/1 220/10/1
f 221/9/1 222/1/1 223/4/1 224/10/1
f 225/9/1 226/1/1 227/4/1 228/10/1
f 229/9/1 230/1/1 231/4/1 232/10/1
f 233/9/1 234/1/1 235/4/1 236/10/1
f 237/9/1 238/1/1 239/4/1 240/10/1
f 241/9/1 242/1/1 243/4/1 244/10/1
f 245/9/1 246/1/1 247/4/1 248/10/1
f 249/9/1 250/1/1 251/4/1 252/10/1
f 253/9/1 254/1/1 255/4/1 256/10/1
f 257/9/1 258/1/1 259/4/1 260/10/1
f 261/9/1 262/1/1 263/4/1 264/10/1
f 265/9/1 266/1/1 267/4/1 268/10/1
f 269/9/1 270/1/1 271/4/1 272/10/1
f 273/9/1 274/1/1 275/4/1 276/10/1
f 277/9/1 278/1/1 279/4/1 280/10/1
f 281/9/1 282/1/1 283/4/1 284/10/1
f 285/9/1 286/1/1 287/4/1 288/10/1
f 289/9/1 290/1/1 291/4/1 292/10/1
f 293/9/1 294/1/1 295/4/1 296/10/1
f 297/9/1 298/1/1 299/4/1 300/10/1
f 301/9/1 302/1/1 303/4/1 304/10/1
f 305/9/1 306/1/1 307/4/1 308/10/1
f 309/9/1 310/1/1 311/4/1 312/10/1
f 313/9/1 314/1/1 315/4/1 316/10/1
f 317/1/1 318/2/1 319/3/1 320/4/1
f 321/2/1 322/5/1 323/6/1 324/3/1
f 325/9/1 326/1/1 327/4/1 328/10/1
f 329/9/1 330/1/1 331/4/1 332/10/1
f 333/9/1 334/1/1 335/4/1 336/10/1
f 337/9/1 338/1/1 339/4/1 340/10/1
f 341/9/1 342/1/1 343/4/1 344/10/1
f 345/9/1 346/1/1 347/4/1 348/10/1
f 349/9/1 350/1/1 351/4/1 352/10/1
f 353/9/1 354/1/1 355/4/1 356/10/1
f 357/9/1 358/1/1 359/4/1 360/10/1
f 361/9/1 362/1/1 363/4/1 364/10/1
f 365/9/1 366/1/1 367/4/1 368/10/1
f 369/9/1 370/1/1 371/4/1 372/10/1
f 373/9/1 374/1/1 375/4/1 376/10/1
f 377/9/1 378/1/1 379/4/1 380/10/1
f 381/9/1 382/1/1 383/4/1 384/10/1
f 385/9/1 386/1/1 387/4/1 388/10/1
f 389/9/1 390/1/1 391/4/1 392/10/1
f 393/9/1 394/1/1 395/4/1 396/10/1
f 397/9/1 398/1/1 399/4/1 400/10/1
f 401/9/1 402/1/1 403/4/1 404/10/1
f 405/9/1 406/1/1 407/4/1 408/10/1
f 409/9/1 410/1/1 411/4/1 412/10/1
f 413/9/1 414/1/1 415/4/1 416/10/1
f 417/9/1 418/1/1 419/4/1 420/10/1
f 421/9/1 422/1/1 423/4/1 424/10/1
f 425/9/1 426/1/1 427/4/1 428/10/1
f 429/9/1 430/1/1 431/4/1 432/10/1
f 433/9/1 434/1/1 435/4/1 436/10/1
f 437/9/1 438/1/1 439/4/1 440/10/1
f 441/9/1 442/1/1 443/4/1 444/10/1
f 445/9/1 446/1/1 447/4/1 448/10/1
f 449/9/1 450/1/1 451/4/1 452/10/1
f 453/9/1 454/1/1 455/4/1 456/10/1
f 457/9/1 458/1/1 459/4/1 460/10/1
f 461/9/1 462/1/1 463/4/1 464/10/1
f 465/9/1 466/1/1 467/4/1 468/10/1
f 469/1/1 470/2/1 471/3/1 472/4/1
f 473/2/1 474/5/1 475/6/1 476/3/1
f 477/5/1 478/7/1 479/8/1 480/6/1
f 481/9/1 482/1/1 483/4/1 484/10/1
f 485/9/1 486/1/1 487/4/1 488/10/1
f 489/9/1 490/1/1 491/4/1 492/10/1
f 493/9/1 494/1/1 495/4/1 496/10/1
f 497/9/1 498/1/1 499/4/1 500/10/1
f 501/9/1 502/1/1 503/4/1 504/10/1
f 505/9/1 506/1/1 507/4/1 508/10/1
f 509/9/1 510/1/1 511/4/1 512/10/1
f 513/9/1 514/1/1 515/4/1 516/10/1
f 517/9/1 518/1/1 519/4/1 520/10/1
f 521/9/1 522/1/1 523/4/1 524/10/1
f 525/9/1 526/1/1 527/4/1 528/10/1
f 529/9/1 530/1/1 531/4/1 532/10/1
f 533/1/1 534/2/1 535/3/1 536/4/1
f 537/9/1 538/1/1 539/4/1 540/10/1
f 541/9/1 542/1/1 543/4/1 544/10/1
f 545/9/1 546/1/1 547/4/1 548/10/1
f 549/9/1 550/1/1 551/4/1 552/10/1
f 553/9/1 554/1/1 555/4/1 556/10/1
f 557/9/1 558/1/1 559/4/1 560/10/1
f 561/9/1 562/1/1 563/4/1 564/10/1
f 565/9/1 566/1/1 567/4/1 568/10/1
f 569/9/1 570/1/1 571/4/1 572/10/1
f 573/9/1 574/1/1 575/4/1 576/10/1
f 577/9/1 578/1/1 579/4/1 580/10/1
f 581/9/1 582/1/1 583/4/1 584/10/1
f 585/9/1 586/1/1 587/4/1 588/10/1
f 589/9/1 590/1/1 591/4/1 592/10/1
f 593/9/1 594/1/1 595/4/1 596/10/1
f 597/9/1 598/1/1 599/4/1 600/10/1
f 601/9/1 602/1/1 603/4/1 604/10/1
f 605/9/1 606/1/1 607/4/1 608/10/1
f 609/9/1 610/1/1 611/4/1 612/10/1
f 613/9/1 614/1/1 615/4/1 616/10/1
f 617/9/1 618/1/1 619/4/1 620/10/1
f 621/9/1 622/1/1 623/4/1 624/10/1
f 625/9/1 626/1/1 627/4/1 628/10/1
f 629/9/1 630/1/1 631/4/1 632/10/1
f 633/9/1 634/1/1 635/4/1 636/10/1
f 637/9/1 638/1/1 639/4/1 640/10/1
f 641/9/1 642/1/1 643/4/1 644/10/1
f 645/9/1 646/1/1 647/4/1 648/10/1
f 649/9/1 650/1/1 651/4/1 652/10/1
f 653/9/1 654/1/1 655/4/1 656/10/1
f 657/9/1 658/1/1 659/4/1 660/10/1
f 661/9/1 662/1/1 663/4/1 664/10/1
f 665/9/1 666/1/1 667/4/1 668/10/1
f 669/9/1 670/1/1 671/4/1 672/10/1
f 673/1/1 674/2/1 675/3/1 676/4/1
f 677/9/1 678/1/1 679/4/1 680/10/1
f 681/9/1 682/1/1 683/4/1 684/10/1
f 685/9/1 686/1/1 687/4/1 688/10/1
f 689/9/1 690/1/1 691/4/1 692/10/1
f 693/9/1 694/1/1 695/4/1 696/10/1
f 697/9/1 698/1/1 699/4/1 700/10/1
f 701/9/1 702/1/1 703/4/1 704/10/1
f 705/9/1 706/1/1 707/4/1 708/10/1
f 709/9/1 710/1/1 711/4/1 712/10/1
f 713/9/1 714/1/1 715/4/1 716/10/1
f 717/9/1 718/1/1 719/4/1 720/10/1
f 721/9/1 722/1/1 723/4/1 724/10/1
f 725/9/1 726/1/1 727/4/1 728/10/1
f 729/9/1 730/1/1 731/4/1 732/10/1
f 733/9/1 734/1/1 735/4/1 736/10/1
f 737/1/1 738/2/1 739/3/1 740/4/1
f 741/2/1 742/5/1 743/6/1 744/3/1
f 745/5/1 746/7/1 747/8/1 748/6/1
f 749/9/1 750/1/1 751/4/1 752/10/1
f 753/9/1 754/1/1 755/4/1 756/10/1
f 757/9/1 758/1/1 759/4/1 760/10/1
f 761/1/1 762/2/1 763/3/1 764/4/1
f 765/2/1 766/5/1 767/6/1 768/3/1
f 769/9/1 770/1/1 771/4/1 772/10/1
f 773/1/1 774/2/1 775/3/1 776/4/1
f 777/2/1 778/5/1 779/6/1 780/3/1
f 781/9/1 782/1/1 783/4/1 784/10/1
f 785/1/1 786/2/1 787/3/1 788/4/1
f 789/2/1 790/5/1 791/6/1 792/3/1
f 793/5/1 794/7/1 795/8/1 796/6/1

