# Tiled2Unity generated file. Do not modify by hand.
# Wavefront file for 'Level-8_mesh_0002.obj'

# Vertices (Count = 16)
v -5504 -256 0
v -5536 -256 0
v -5536 -224 0
v -5504 -224 0
v -6240 -288 0
v -6272 -288 0
v -6272 -256 0
v -6240 -256 0
v -5024 -320 0
v -5056 -320 0
v -5056 -288 0
v -5024 -288 0
v -5600 -416 0
v -5632 -416 0
v -5632 -384 0
v -5600 -384 0

# Texture cooridinates (Count = 4)
vt 0 0
vt 1 0
vt 1 1
vt 0 1

# Normal
vn 0 0 -1

# Mesh description
g Level-8_mesh_0002

# Faces
f 1/1/1 2/2/1 3/3/1 4/4/1
f 5/1/1 6/2/1 7/3/1 8/4/1
f 9/1/1 10/2/1 11/3/1 12/4/1
f 13/1/1 14/2/1 15/3/1 16/4/1

