# Tiled2Unity generated file. Do not modify by hand.
# Wavefront file for 'Level-5_mesh_0004.obj'

# Vertices (Count = 44)
v -3648 -64 0
v -3680 -64 0
v -3680 -32 0
v -3648 -32 0
v -3872 -64 0
v -3904 -64 0
v -3904 -32 0
v -3872 -32 0
v -4000 -128 0
v -4032 -128 0
v -4032 -96 0
v -4000 -96 0
v -4288 -160 0
v -4320 -160 0
v -4320 -128 0
v -4288 -128 0
v -4512 -160 0
v -4544 -160 0
v -4544 -128 0
v -4512 -128 0
v -4640 -224 0
v -4672 -224 0
v -4672 -192 0
v -4640 -192 0
v -1824 -416 0
v -1856 -416 0
v -1856 -384 0
v -1824 -384 0
v -4928 -448 0
v -4960 -448 0
v -4960 -416 0
v -4928 -416 0
v -5152 -448 0
v -5184 -448 0
v -5184 -416 0
v -5152 -416 0
v -1888 -480 0
v -1920 -480 0
v -1920 -448 0
v -1888 -448 0
v -5280 -512 0
v -5312 -512 0
v -5312 -480 0
v -5280 -480 0

# Texture cooridinates (Count = 4)
vt 0 0
vt 1 0
vt 1 1
vt 0 1

# Normal
vn 0 0 -1

# Mesh description
g Level-5_mesh_0004

# Faces
f 1/1/1 2/2/1 3/3/1 4/4/1
f 5/1/1 6/2/1 7/3/1 8/4/1
f 9/1/1 10/2/1 11/3/1 12/4/1
f 13/1/1 14/2/1 15/3/1 16/4/1
f 17/1/1 18/2/1 19/3/1 20/4/1
f 21/1/1 22/2/1 23/3/1 24/4/1
f 25/1/1 26/2/1 27/3/1 28/4/1
f 29/1/1 30/2/1 31/3/1 32/4/1
f 33/1/1 34/2/1 35/3/1 36/4/1
f 37/1/1 38/2/1 39/3/1 40/4/1
f 41/1/1 42/2/1 43/3/1 44/4/1

