# Tiled2Unity generated file. Do not modify by hand.
# Wavefront file for 'Level-5_mesh_0003.obj'

# Vertices (Count = 88)
v -2912 -64 0
v -2944 -64 0
v -2944 -32 0
v -2912 -32 0
v -3520 -128 0
v -3552 -128 0
v -3552 -96 0
v -3520 -96 0
v -3648 -224 0
v -3680 -224 0
v -3680 -192 0
v -3648 -192 0
v -3904 -224 0
v -3936 -224 0
v -3936 -192 0
v -3904 -192 0
v -4160 -224 0
v -4192 -224 0
v -4192 -192 0
v -4160 -192 0
v -3584 -256 0
v -3616 -256 0
v -3616 -224 0
v -3584 -224 0
v -4288 -320 0
v -4320 -320 0
v -4320 -288 0
v -4288 -288 0
v -4544 -320 0
v -4576 -320 0
v -4576 -288 0
v -4544 -288 0
v -4224 -352 0
v -4256 -352 0
v -4256 -320 0
v -4224 -320 0
v -6272 -384 0
v -6304 -384 0
v -6304 -352 0
v -6272 -352 0
v -6304 -384 0
v -6336 -384 0
v -6336 -352 0
v -6304 -352 0
v -5632 -416 0
v -5664 -416 0
v -5664 -384 0
v -5632 -384 0
v -5664 -416 0
v -5696 -416 0
v -5696 -384 0
v -5664 -384 0
v -288 -512 0
v -320 -512 0
v -320 -480 0
v -288 -480 0
v -4800 -512 0
v -4832 -512 0
v -4832 -480 0
v -4800 -480 0
v -1056 -544 0
v -1088 -544 0
v -1088 -512 0
v -1056 -512 0
v -160 -608 0
v -192 -608 0
v -192 -576 0
v -160 -576 0
v -704 -608 0
v -736 -608 0
v -736 -576 0
v -704 -576 0
v -768 -608 0
v -800 -608 0
v -800 -576 0
v -768 -576 0
v -4928 -608 0
v -4960 -608 0
v -4960 -576 0
v -4928 -576 0
v -5184 -608 0
v -5216 -608 0
v -5216 -576 0
v -5184 -576 0
v -4864 -640 0
v -4896 -640 0
v -4896 -608 0
v -4864 -608 0

# Texture cooridinates (Count = 4)
vt 0 0
vt 1 0
vt 1 1
vt 0 1

# Normal
vn 0 0 -1

# Mesh description
g Level-5_mesh_0003

# Faces
f 1/1/1 2/2/1 3/3/1 4/4/1
f 5/1/1 6/2/1 7/3/1 8/4/1
f 9/1/1 10/2/1 11/3/1 12/4/1
f 13/1/1 14/2/1 15/3/1 16/4/1
f 17/1/1 18/2/1 19/3/1 20/4/1
f 21/1/1 22/2/1 23/3/1 24/4/1
f 25/1/1 26/2/1 27/3/1 28/4/1
f 29/1/1 30/2/1 31/3/1 32/4/1
f 33/1/1 34/2/1 35/3/1 36/4/1
f 37/1/1 38/2/1 39/3/1 40/4/1
f 41/1/1 42/2/1 43/3/1 44/4/1
f 45/1/1 46/2/1 47/3/1 48/4/1
f 49/1/1 50/2/1 51/3/1 52/4/1
f 53/1/1 54/2/1 55/3/1 56/4/1
f 57/1/1 58/2/1 59/3/1 60/4/1
f 61/1/1 62/2/1 63/3/1 64/4/1
f 65/1/1 66/2/1 67/3/1 68/4/1
f 69/1/1 70/2/1 71/3/1 72/4/1
f 73/1/1 74/2/1 75/3/1 76/4/1
f 77/1/1 78/2/1 79/3/1 80/4/1
f 81/1/1 82/2/1 83/3/1 84/4/1
f 85/1/1 86/2/1 87/3/1 88/4/1

