# Tiled2Unity generated file. Do not modify by hand.
# Wavefront file for 'Level-5_mesh_0005.obj'

# Vertices (Count = 216)
v -3744 -160 0
v -3776 -160 0
v -3776 -128 0
v -3744 -128 0
v -3776 -160 0
v -3808 -160 0
v -3808 -128 0
v -3776 -128 0
v -4384 -256 0
v -4416 -256 0
v -4416 -224 0
v -4384 -224 0
v -4416 -256 0
v -4448 -256 0
v -4448 -224 0
v -4416 -224 0
v -3680 -320 0
v -3712 -320 0
v -3712 -288 0
v -3680 -288 0
v -3840 -320 0
v -3872 -320 0
v -3872 -288 0
v -3840 -288 0
v -32 -416 0
v -64 -416 0
v -64 -384 0
v -32 -384 0
v -416 -416 0
v -448 -416 0
v -448 -384 0
v -416 -384 0
v -448 -416 0
v -480 -416 0
v -480 -384 0
v -448 -384 0
v -480 -416 0
v -512 -416 0
v -512 -384 0
v -480 -384 0
v -1696 -416 0
v -1728 -416 0
v -1728 -384 0
v -1696 -384 0
v -1728 -416 0
v -1760 -416 0
v -1760 -384 0
v -1728 -384 0
v -4320 -416 0
v -4352 -416 0
v -4352 -384 0
v -4320 -384 0
v -4480 -416 0
v -4512 -416 0
v -4512 -384 0
v -4480 -384 0
v -5952 -416 0
v -5984 -416 0
v -5984 -384 0
v -5952 -384 0
v -6048 -416 0
v -6080 -416 0
v -6080 -384 0
v -6048 -384 0
v -224 -448 0
v -256 -448 0
v -256 -416 0
v -224 -416 0
v -3840 -448 0
v -3872 -448 0
v -3872 -416 0
v -3840 -416 0
v -5408 -448 0
v -5440 -448 0
v -5440 -416 0
v -5408 -416 0
v -832 -480 0
v -864 -480 0
v -864 -448 0
v -832 -448 0
v -1952 -480 0
v -1984 -480 0
v -1984 -448 0
v -1952 -448 0
v -1984 -480 0
v -2016 -480 0
v -2016 -448 0
v -1984 -448 0
v -2016 -480 0
v -2048 -480 0
v -2048 -448 0
v -2016 -448 0
v -3616 -480 0
v -3648 -480 0
v -3648 -448 0
v -3616 -448 0
v -1312 -512 0
v -1344 -512 0
v -1344 -480 0
v -1312 -480 0
v -1344 -512 0
v -1376 -512 0
v -1376 -480 0
v -1344 -480 0
v -1376 -512 0
v -1408 -512 0
v -1408 -480 0
v -1376 -480 0
v -3456 -512 0
v -3488 -512 0
v -3488 -480 0
v -3456 -480 0
v -3488 -512 0
v -3520 -512 0
v -3520 -480 0
v -3488 -480 0
v -3520 -512 0
v -3552 -512 0
v -3552 -480 0
v -3520 -480 0
v -3936 -512 0
v -3968 -512 0
v -3968 -480 0
v -3936 -480 0
v -4000 -512 0
v -4032 -512 0
v -4032 -480 0
v -4000 -480 0
v -4032 -512 0
v -4064 -512 0
v -4064 -480 0
v -4032 -480 0
v -4064 -512 0
v -4096 -512 0
v -4096 -480 0
v -4064 -480 0
v -928 -544 0
v -960 -544 0
v -960 -512 0
v -928 -512 0
v -960 -544 0
v -992 -544 0
v -992 -512 0
v -960 -512 0
v -1152 -544 0
v -1184 -544 0
v -1184 -512 0
v -1152 -512 0
v -1184 -544 0
v -1216 -544 0
v -1216 -512 0
v -1184 -512 0
v -4480 -544 0
v -4512 -544 0
v -4512 -512 0
v -4480 -512 0
v -5024 -544 0
v -5056 -544 0
v -5056 -512 0
v -5024 -512 0
v -5056 -544 0
v -5088 -544 0
v -5088 -512 0
v -5056 -512 0
v -320 -576 0
v -352 -576 0
v -352 -544 0
v -320 -544 0
v -352 -576 0
v -384 -576 0
v -384 -544 0
v -352 -544 0
v -384 -576 0
v -416 -576 0
v -416 -544 0
v -384 -544 0
v -4256 -576 0
v -4288 -576 0
v -4288 -544 0
v -4256 -544 0
v -4096 -608 0
v -4128 -608 0
v -4128 -576 0
v -4096 -576 0
v -4128 -608 0
v -4160 -608 0
v -4160 -576 0
v -4128 -576 0
v -4160 -608 0
v -4192 -608 0
v -4192 -576 0
v -4160 -576 0
v -4576 -608 0
v -4608 -608 0
v -4608 -576 0
v -4576 -576 0
v -4640 -608 0
v -4672 -608 0
v -4672 -576 0
v -4640 -576 0
v -4672 -608 0
v -4704 -608 0
v -4704 -576 0
v -4672 -576 0
v -4704 -608 0
v -4736 -608 0
v -4736 -576 0
v -4704 -576 0
v -736 -640 0
v -768 -640 0
v -768 -608 0
v -736 -608 0
v -864 -640 0
v -896 -640 0
v -896 -608 0
v -864 -608 0

# Texture cooridinates (Count = 10)
vt 0.25 0
vt 0.5 0
vt 0.5 1
vt 0.25 1
vt 0 0
vt 0 1
vt 0.75 0
vt 0.75 1
vt 1 0
vt 1 1

# Normal
vn 0 0 -1

# Mesh description
g Level-5_mesh_0005

# Faces
f 1/1/1 2/2/1 3/3/1 4/4/1
f 5/1/1 6/2/1 7/3/1 8/4/1
f 9/1/1 10/2/1 11/3/1 12/4/1
f 13/1/1 14/2/1 15/3/1 16/4/1
f 17/1/1 18/2/1 19/3/1 20/4/1
f 21/1/1 22/2/1 23/3/1 24/4/1
f 25/5/1 26/1/1 27/4/1 28/6/1
f 29/5/1 30/1/1 31/4/1 32/6/1
f 33/5/1 34/1/1 35/4/1 36/6/1
f 37/5/1 38/1/1 39/4/1 40/6/1
f 41/5/1 42/1/1 43/4/1 44/6/1
f 45/5/1 46/1/1 47/4/1 48/6/1
f 49/1/1 50/2/1 51/3/1 52/4/1
f 53/1/1 54/2/1 55/3/1 56/4/1
f 57/5/1 58/1/1 59/4/1 60/6/1
f 61/5/1 62/1/1 63/4/1 64/6/1
f 65/5/1 66/1/1 67/4/1 68/6/1
f 69/1/1 70/2/1 71/3/1 72/4/1
f 73/5/1 74/1/1 75/4/1 76/6/1
f 77/5/1 78/1/1 79/4/1 80/6/1
f 81/1/1 82/2/1 83/3/1 84/4/1
f 85/2/1 86/7/1 87/8/1 88/3/1
f 89/7/1 90/9/1 91/10/1 92/8/1
f 93/1/1 94/2/1 95/3/1 96/4/1
f 97/5/1 98/1/1 99/4/1 100/6/1
f 101/5/1 102/1/1 103/4/1 104/6/1
f 105/5/1 106/1/1 107/4/1 108/6/1
f 109/1/1 110/2/1 111/3/1 112/4/1
f 113/1/1 114/2/1 115/3/1 116/4/1
f 117/1/1 118/2/1 119/3/1 120/4/1
f 121/1/1 122/2/1 123/3/1 124/4/1
f 125/1/1 126/2/1 127/3/1 128/4/1
f 129/1/1 130/2/1 131/3/1 132/4/1
f 133/1/1 134/2/1 135/3/1 136/4/1
f 137/5/1 138/1/1 139/4/1 140/6/1
f 141/5/1 142/1/1 143/4/1 144/6/1
f 145/5/1 146/1/1 147/4/1 148/6/1
f 149/5/1 150/1/1 151/4/1 152/6/1
f 153/1/1 154/2/1 155/3/1 156/4/1
f 157/1/1 158/2/1 159/3/1 160/4/1
f 161/1/1 162/2/1 163/3/1 164/4/1
f 165/5/1 166/1/1 167/4/1 168/6/1
f 169/5/1 170/1/1 171/4/1 172/6/1
f 173/5/1 174/1/1 175/4/1 176/6/1
f 177/1/1 178/2/1 179/3/1 180/4/1
f 181/1/1 182/2/1 183/3/1 184/4/1
f 185/1/1 186/2/1 187/3/1 188/4/1
f 189/1/1 190/2/1 191/3/1 192/4/1
f 193/1/1 194/2/1 195/3/1 196/4/1
f 197/1/1 198/2/1 199/3/1 200/4/1
f 201/1/1 202/2/1 203/3/1 204/4/1
f 205/1/1 206/2/1 207/3/1 208/4/1
f 209/5/1 210/1/1 211/4/1 212/6/1
f 213/5/1 214/1/1 215/4/1 216/6/1

