# Tiled2Unity generated file. Do not modify by hand.
# Wavefront file for 'Level-5_mesh_0002.obj'

# Vertices (Count = 40)
v -4320 -32 0
v -4352 -32 0
v -4352 0 0
v -4320 0 0
v -4480 -32 0
v -4512 -32 0
v -4512 0 0
v -4480 0 0
v -4960 -320 0
v -4992 -320 0
v -4992 -288 0
v -4960 -288 0
v -5120 -320 0
v -5152 -320 0
v -5152 -288 0
v -5120 -288 0
v -3584 -352 0
v -3616 -352 0
v -3616 -320 0
v -3584 -320 0
v -1536 -448 0
v -1568 -448 0
v -1568 -416 0
v -1536 -416 0
v -4224 -448 0
v -4256 -448 0
v -4256 -416 0
v -4224 -416 0
v -1248 -512 0
v -1280 -512 0
v -1280 -480 0
v -1248 -480 0
v -2208 -608 0
v -2240 -608 0
v -2240 -576 0
v -2208 -576 0
v -2240 -608 0
v -2272 -608 0
v -2272 -576 0
v -2240 -576 0

# Texture cooridinates (Count = 4)
vt 0 0
vt 1 0
vt 1 1
vt 0 1

# Normal
vn 0 0 -1

# Mesh description
g Level-5_mesh_0002

# Faces
f 1/1/1 2/2/1 3/3/1 4/4/1
f 5/1/1 6/2/1 7/3/1 8/4/1
f 9/1/1 10/2/1 11/3/1 12/4/1
f 13/1/1 14/2/1 15/3/1 16/4/1
f 17/1/1 18/2/1 19/3/1 20/4/1
f 21/1/1 22/2/1 23/3/1 24/4/1
f 25/1/1 26/2/1 27/3/1 28/4/1
f 29/1/1 30/2/1 31/3/1 32/4/1
f 33/1/1 34/2/1 35/3/1 36/4/1
f 37/1/1 38/2/1 39/3/1 40/4/1

