# Tiled2Unity generated file. Do not modify by hand.
# Wavefront file for 'Level3_mesh_0004.obj'

# Vertices (Count = 156)
v -2144 -96 0
v -2176 -96 0
v -2176 -64 0
v -2144 -64 0
v -2176 -96 0
v -2208 -96 0
v -2208 -64 0
v -2176 -64 0
v -2784 -128 0
v -2816 -128 0
v -2816 -96 0
v -2784 -96 0
v -2816 -128 0
v -2848 -128 0
v -2848 -96 0
v -2816 -96 0
v -1760 -192 0
v -1792 -192 0
v -1792 -160 0
v -1760 -160 0
v -1792 -192 0
v -1824 -192 0
v -1824 -160 0
v -1792 -160 0
v -1824 -192 0
v -1856 -192 0
v -1856 -160 0
v -1824 -160 0
v -2400 -224 0
v -2432 -224 0
v -2432 -192 0
v -2400 -192 0
v -2432 -224 0
v -2464 -224 0
v -2464 -192 0
v -2432 -192 0
v -2464 -224 0
v -2496 -224 0
v -2496 -192 0
v -2464 -192 0
v -3136 -256 0
v -3168 -256 0
v -3168 -224 0
v -3136 -224 0
v -3168 -256 0
v -3200 -256 0
v -3200 -224 0
v -3168 -224 0
v -3200 -256 0
v -3232 -256 0
v -3232 -224 0
v -3200 -224 0
v -3840 -320 0
v -3872 -320 0
v -3872 -288 0
v -3840 -288 0
v -3872 -320 0
v -3904 -320 0
v -3904 -288 0
v -3872 -288 0
v -3904 -320 0
v -3936 -320 0
v -3936 -288 0
v -3904 -288 0
v -6080 -352 0
v -6112 -352 0
v -6112 -320 0
v -6080 -320 0
v -2080 -384 0
v -2112 -384 0
v -2112 -352 0
v -2080 -352 0
v -2656 -384 0
v -2688 -384 0
v -2688 -352 0
v -2656 -352 0
v -2720 -384 0
v -2752 -384 0
v -2752 -352 0
v -2720 -352 0
v -5664 -384 0
v -5696 -384 0
v -5696 -352 0
v -5664 -352 0
v -6272 -384 0
v -6304 -384 0
v -6304 -352 0
v -6272 -352 0
v -1952 -416 0
v -1984 -416 0
v -1984 -384 0
v -1952 -384 0
v -2016 -416 0
v -2048 -416 0
v -2048 -384 0
v -2016 -384 0
v -2592 -416 0
v -2624 -416 0
v -2624 -384 0
v -2592 -384 0
v -5568 -416 0
v -5600 -416 0
v -5600 -384 0
v -5568 -384 0
v -5856 -416 0
v -5888 -416 0
v -5888 -384 0
v -5856 -384 0
v -4512 -448 0
v -4544 -448 0
v -4544 -416 0
v -4512 -416 0
v -4768 -448 0
v -4800 -448 0
v -4800 -416 0
v -4768 -416 0
v -5024 -448 0
v -5056 -448 0
v -5056 -416 0
v -5024 -416 0
v -6368 -512 0
v -6400 -512 0
v -6400 -480 0
v -6368 -480 0
v -5952 -544 0
v -5984 -544 0
v -5984 -512 0
v -5952 -512 0
v -5984 -544 0
v -6016 -544 0
v -6016 -512 0
v -5984 -512 0
v -6016 -544 0
v -6048 -544 0
v -6048 -512 0
v -6016 -512 0
v -5696 -608 0
v -5728 -608 0
v -5728 -576 0
v -5696 -576 0
v -6080 -608 0
v -6112 -608 0
v -6112 -576 0
v -6080 -576 0
v -6112 -608 0
v -6144 -608 0
v -6144 -576 0
v -6112 -576 0
v -6144 -608 0
v -6176 -608 0
v -6176 -576 0
v -6144 -576 0
v -5888 -640 0
v -5920 -640 0
v -5920 -608 0
v -5888 -608 0

# Texture cooridinates (Count = 10)
vt 0 0
vt 0.25 0
vt 0.25 1
vt 0 1
vt 0.5 0
vt 0.5 1
vt 0.75 0
vt 0.75 1
vt 1 0
vt 1 1

# Normal
vn 0 0 -1

# Mesh description
g Level3_mesh_0004

# Faces
f 1/1/1 2/2/1 3/3/1 4/4/1
f 5/1/1 6/2/1 7/3/1 8/4/1
f 9/1/1 10/2/1 11/3/1 12/4/1
f 13/1/1 14/2/1 15/3/1 16/4/1
f 17/1/1 18/2/1 19/3/1 20/4/1
f 21/1/1 22/2/1 23/3/1 24/4/1
f 25/1/1 26/2/1 27/3/1 28/4/1
f 29/1/1 30/2/1 31/3/1 32/4/1
f 33/1/1 34/2/1 35/3/1 36/4/1
f 37/1/1 38/2/1 39/3/1 40/4/1
f 41/2/1 42/5/1 43/6/1 44/3/1
f 45/5/1 46/7/1 47/8/1 48/6/1
f 49/7/1 50/9/1 51/10/1 52/8/1
f 53/2/1 54/5/1 55/6/1 56/3/1
f 57/5/1 58/7/1 59/8/1 60/6/1
f 61/7/1 62/9/1 63/10/1 64/8/1
f 65/1/1 66/2/1 67/3/1 68/4/1
f 69/1/1 70/2/1 71/3/1 72/4/1
f 73/1/1 74/2/1 75/3/1 76/4/1
f 77/1/1 78/2/1 79/3/1 80/4/1
f 81/1/1 82/2/1 83/3/1 84/4/1
f 85/1/1 86/2/1 87/3/1 88/4/1
f 89/1/1 90/2/1 91/3/1 92/4/1
f 93/1/1 94/2/1 95/3/1 96/4/1
f 97/1/1 98/2/1 99/3/1 100/4/1
f 101/1/1 102/2/1 103/3/1 104/4/1
f 105/1/1 106/2/1 107/3/1 108/4/1
f 109/1/1 110/2/1 111/3/1 112/4/1
f 113/2/1 114/5/1 115/6/1 116/3/1
f 117/1/1 118/2/1 119/3/1 120/4/1
f 121/1/1 122/2/1 123/3/1 124/4/1
f 125/1/1 126/2/1 127/3/1 128/4/1
f 129/1/1 130/2/1 131/3/1 132/4/1
f 133/1/1 134/2/1 135/3/1 136/4/1
f 137/1/1 138/2/1 139/3/1 140/4/1
f 141/1/1 142/2/1 143/3/1 144/4/1
f 145/1/1 146/2/1 147/3/1 148/4/1
f 149/1/1 150/2/1 151/3/1 152/4/1
f 153/1/1 154/2/1 155/3/1 156/4/1

