# Tiled2Unity generated file. Do not modify by hand.
# Wavefront file for 'Level3_mesh_0002.obj'

# Vertices (Count = 188)
v -4384 -32 0
v -4416 -32 0
v -4416 0 0
v -4384 0 0
v -4416 -32 0
v -4448 -32 0
v -4448 0 0
v -4416 0 0
v -4448 -32 0
v -4480 -32 0
v -4480 0 0
v -4448 0 0
v -4480 -32 0
v -4512 -32 0
v -4512 0 0
v -4480 0 0
v -4512 -32 0
v -4544 -32 0
v -4544 0 0
v -4512 0 0
v -4544 -32 0
v -4576 -32 0
v -4576 0 0
v -4544 0 0
v -4576 -32 0
v -4608 -32 0
v -4608 0 0
v -4576 0 0
v -4608 -32 0
v -4640 -32 0
v -4640 0 0
v -4608 0 0
v -4640 -32 0
v -4672 -32 0
v -4672 0 0
v -4640 0 0
v -4672 -32 0
v -4704 -32 0
v -4704 0 0
v -4672 0 0
v -4704 -32 0
v -4736 -32 0
v -4736 0 0
v -4704 0 0
v -4736 -32 0
v -4768 -32 0
v -4768 0 0
v -4736 0 0
v -4768 -32 0
v -4800 -32 0
v -4800 0 0
v -4768 0 0
v -4800 -32 0
v -4832 -32 0
v -4832 0 0
v -4800 0 0
v -4832 -32 0
v -4864 -32 0
v -4864 0 0
v -4832 0 0
v -4864 -32 0
v -4896 -32 0
v -4896 0 0
v -4864 0 0
v -4896 -32 0
v -4928 -32 0
v -4928 0 0
v -4896 0 0
v -4928 -32 0
v -4960 -32 0
v -4960 0 0
v -4928 0 0
v -4960 -32 0
v -4992 -32 0
v -4992 0 0
v -4960 0 0
v -4384 -224 0
v -4416 -224 0
v -4416 -192 0
v -4384 -192 0
v -4416 -224 0
v -4448 -224 0
v -4448 -192 0
v -4416 -192 0
v -4448 -224 0
v -4480 -224 0
v -4480 -192 0
v -4448 -192 0
v -4512 -224 0
v -4544 -224 0
v -4544 -192 0
v -4512 -192 0
v -4544 -224 0
v -4576 -224 0
v -4576 -192 0
v -4544 -192 0
v -4576 -224 0
v -4608 -224 0
v -4608 -192 0
v -4576 -192 0
v -4640 -224 0
v -4672 -224 0
v -4672 -192 0
v -4640 -192 0
v -4672 -224 0
v -4704 -224 0
v -4704 -192 0
v -4672 -192 0
v -4704 -224 0
v -4736 -224 0
v -4736 -192 0
v -4704 -192 0
v -4768 -224 0
v -4800 -224 0
v -4800 -192 0
v -4768 -192 0
v -4800 -224 0
v -4832 -224 0
v -4832 -192 0
v -4800 -192 0
v -4832 -224 0
v -4864 -224 0
v -4864 -192 0
v -4832 -192 0
v -4896 -224 0
v -4928 -224 0
v -4928 -192 0
v -4896 -192 0
v -4928 -224 0
v -4960 -224 0
v -4960 -192 0
v -4928 -192 0
v -4960 -224 0
v -4992 -224 0
v -4992 -192 0
v -4960 -192 0
v -4352 -448 0
v -4384 -448 0
v -4384 -416 0
v -4352 -416 0
v -4384 -448 0
v -4416 -448 0
v -4416 -416 0
v -4384 -416 0
v -4416 -448 0
v -4448 -448 0
v -4448 -416 0
v -4416 -416 0
v -4480 -448 0
v -4512 -448 0
v -4512 -416 0
v -4480 -416 0
v -4544 -448 0
v -4576 -448 0
v -4576 -416 0
v -4544 -416 0
v -4608 -448 0
v -4640 -448 0
v -4640 -416 0
v -4608 -416 0
v -4640 -448 0
v -4672 -448 0
v -4672 -416 0
v -4640 -416 0
v -4672 -448 0
v -4704 -448 0
v -4704 -416 0
v -4672 -416 0
v -4736 -448 0
v -4768 -448 0
v -4768 -416 0
v -4736 -416 0
v -4800 -448 0
v -4832 -448 0
v -4832 -416 0
v -4800 -416 0
v -4864 -448 0
v -4896 -448 0
v -4896 -416 0
v -4864 -416 0
v -4896 -448 0
v -4928 -448 0
v -4928 -416 0
v -4896 -416 0
v -4928 -448 0
v -4960 -448 0
v -4960 -416 0
v -4928 -416 0

# Texture cooridinates (Count = 15)
vt 0.08333334 0.4
vt 0.1666667 0.4
vt 0.1666667 0.5
vt 0.08333334 0.5
vt 0.8333333 0
vt 0.9166667 0
vt 0.9166667 0.1
vt 0.8333333 0.1
vt 0 0.3
vt 0.08333334 0.3
vt 0 0.4
vt 0.1666667 0.8
vt 0.25 0.8
vt 0.25 0.9
vt 0.1666667 0.9

# Normal
vn 0 0 -1

# Mesh description
g Level3_mesh_0002

# Faces
f 1/1/1 2/2/1 3/3/1 4/4/1
f 5/1/1 6/2/1 7/3/1 8/4/1
f 9/1/1 10/2/1 11/3/1 12/4/1
f 13/5/1 14/6/1 15/7/1 16/8/1
f 17/1/1 18/2/1 19/3/1 20/4/1
f 21/1/1 22/2/1 23/3/1 24/4/1
f 25/1/1 26/2/1 27/3/1 28/4/1
f 29/5/1 30/6/1 31/7/1 32/8/1
f 33/1/1 34/2/1 35/3/1 36/4/1
f 37/1/1 38/2/1 39/3/1 40/4/1
f 41/1/1 42/2/1 43/3/1 44/4/1
f 45/5/1 46/6/1 47/7/1 48/8/1
f 49/1/1 50/2/1 51/3/1 52/4/1
f 53/1/1 54/2/1 55/3/1 56/4/1
f 57/1/1 58/2/1 59/3/1 60/4/1
f 61/5/1 62/6/1 63/7/1 64/8/1
f 65/1/1 66/2/1 67/3/1 68/4/1
f 69/1/1 70/2/1 71/3/1 72/4/1
f 73/1/1 74/2/1 75/3/1 76/4/1
f 77/9/1 78/10/1 79/1/1 80/11/1
f 81/9/1 82/10/1 83/1/1 84/11/1
f 85/9/1 86/10/1 87/1/1 88/11/1
f 89/9/1 90/10/1 91/1/1 92/11/1
f 93/9/1 94/10/1 95/1/1 96/11/1
f 97/9/1 98/10/1 99/1/1 100/11/1
f 101/9/1 102/10/1 103/1/1 104/11/1
f 105/9/1 106/10/1 107/1/1 108/11/1
f 109/9/1 110/10/1 111/1/1 112/11/1
f 113/9/1 114/10/1 115/1/1 116/11/1
f 117/9/1 118/10/1 119/1/1 120/11/1
f 121/9/1 122/10/1 123/1/1 124/11/1
f 125/9/1 126/10/1 127/1/1 128/11/1
f 129/9/1 130/10/1 131/1/1 132/11/1
f 133/9/1 134/10/1 135/1/1 136/11/1
f 137/12/1 138/13/1 139/14/1 140/15/1
f 141/12/1 142/13/1 143/14/1 144/15/1
f 145/12/1 146/13/1 147/14/1 148/15/1
f 149/12/1 150/13/1 151/14/1 152/15/1
f 153/12/1 154/13/1 155/14/1 156/15/1
f 157/12/1 158/13/1 159/14/1 160/15/1
f 161/12/1 162/13/1 163/14/1 164/15/1
f 165/12/1 166/13/1 167/14/1 168/15/1
f 169/12/1 170/13/1 171/14/1 172/15/1
f 173/12/1 174/13/1 175/14/1 176/15/1
f 177/12/1 178/13/1 179/14/1 180/15/1
f 181/12/1 182/13/1 183/14/1 184/15/1
f 185/12/1 186/13/1 187/14/1 188/15/1

