# Tiled2Unity generated file. Do not modify by hand.
# Wavefront file for 'Level-9_mesh_0003.obj'

# Vertices (Count = 20)
v -1504 -192 0
v -1536 -192 0
v -1536 -160 0
v -1504 -160 0
v -576 -224 0
v -608 -224 0
v -608 -192 0
v -576 -192 0
v -5728 -416 0
v -5760 -416 0
v -5760 -384 0
v -5728 -384 0
v -4160 -544 0
v -4192 -544 0
v -4192 -512 0
v -4160 -512 0
v -4960 -576 0
v -4992 -576 0
v -4992 -544 0
v -4960 -544 0

# Texture cooridinates (Count = 4)
vt 0 0
vt 1 0
vt 1 1
vt 0 1

# Normal
vn 0 0 -1

# Mesh description
g Level-9_mesh_0003

# Faces
f 1/1/1 2/2/1 3/3/1 4/4/1
f 5/1/1 6/2/1 7/3/1 8/4/1
f 9/1/1 10/2/1 11/3/1 12/4/1
f 13/1/1 14/2/1 15/3/1 16/4/1
f 17/1/1 18/2/1 19/3/1 20/4/1

