# Tiled2Unity generated file. Do not modify by hand.
# Wavefront file for 'Level-9_mesh_0002.obj'

# Vertices (Count = 36)
v -3808 -160 0
v -3840 -160 0
v -3840 -128 0
v -3808 -128 0
v -1600 -192 0
v -1632 -192 0
v -1632 -160 0
v -1600 -160 0
v -1952 -256 0
v -1984 -256 0
v -1984 -224 0
v -1952 -224 0
v -6368 -384 0
v -6400 -384 0
v -6400 -352 0
v -6368 -352 0
v -6080 -416 0
v -6112 -416 0
v -6112 -384 0
v -6080 -384 0
v -4800 -512 0
v -4832 -512 0
v -4832 -480 0
v -4800 -480 0
v -4512 -544 0
v -4544 -544 0
v -4544 -512 0
v -4512 -512 0
v -5600 -544 0
v -5632 -544 0
v -5632 -512 0
v -5600 -512 0
v -5312 -576 0
v -5344 -576 0
v -5344 -544 0
v -5312 -544 0

# Texture cooridinates (Count = 4)
vt 0 0
vt 1 0
vt 1 1
vt 0 1

# Normal
vn 0 0 -1

# Mesh description
g Level-9_mesh_0002

# Faces
f 1/1/1 2/2/1 3/3/1 4/4/1
f 5/1/1 6/2/1 7/3/1 8/4/1
f 9/1/1 10/2/1 11/3/1 12/4/1
f 13/1/1 14/2/1 15/3/1 16/4/1
f 17/1/1 18/2/1 19/3/1 20/4/1
f 21/1/1 22/2/1 23/3/1 24/4/1
f 25/1/1 26/2/1 27/3/1 28/4/1
f 29/1/1 30/2/1 31/3/1 32/4/1
f 33/1/1 34/2/1 35/3/1 36/4/1

