# Tiled2Unity generated file. Do not modify by hand.
# Wavefront file for 'Level-9_mesh_0004.obj'

# Vertices (Count = 40)
v -3680 -192 0
v -3712 -192 0
v -3712 -160 0
v -3680 -160 0
v -3712 -192 0
v -3744 -192 0
v -3744 -160 0
v -3712 -160 0
v -3744 -192 0
v -3776 -192 0
v -3776 -160 0
v -3744 -160 0
v -320 -224 0
v -352 -224 0
v -352 -192 0
v -320 -192 0
v -352 -224 0
v -384 -224 0
v -384 -192 0
v -352 -192 0
v -384 -224 0
v -416 -224 0
v -416 -192 0
v -384 -192 0
v -1920 -288 0
v -1952 -288 0
v -1952 -256 0
v -1920 -256 0
v -3008 -384 0
v -3040 -384 0
v -3040 -352 0
v -3008 -352 0
v -3040 -384 0
v -3072 -384 0
v -3072 -352 0
v -3040 -352 0
v -3072 -384 0
v -3104 -384 0
v -3104 -352 0
v -3072 -352 0

# Texture cooridinates (Count = 10)
vt 0 0
vt 0.25 0
vt 0.25 1
vt 0 1
vt 0.5 0
vt 0.5 1
vt 0.75 0
vt 0.75 1
vt 1 0
vt 1 1

# Normal
vn 0 0 -1

# Mesh description
g Level-9_mesh_0004

# Faces
f 1/1/1 2/2/1 3/3/1 4/4/1
f 5/2/1 6/5/1 7/6/1 8/3/1
f 9/5/1 10/7/1 11/8/1 12/6/1
f 13/2/1 14/5/1 15/6/1 16/3/1
f 17/5/1 18/7/1 19/8/1 20/6/1
f 21/7/1 22/9/1 23/10/1 24/8/1
f 25/1/1 26/2/1 27/3/1 28/4/1
f 29/1/1 30/2/1 31/3/1 32/4/1
f 33/2/1 34/5/1 35/6/1 36/3/1
f 37/5/1 38/7/1 39/8/1 40/6/1

