# Tiled2Unity generated file. Do not modify by hand.
# Wavefront file for 'Level-6_mesh_0002.obj'

# Vertices (Count = 284)
v -5568 -32 0
v -5600 -32 0
v -5600 0 0
v -5568 0 0
v -5600 -32 0
v -5632 -32 0
v -5632 0 0
v -5600 0 0
v -6208 -64 0
v -6240 -64 0
v -6240 -32 0
v -6208 -32 0
v -6240 -64 0
v -6272 -64 0
v -6272 -32 0
v -6240 -32 0
v -1856 -160 0
v -1888 -160 0
v -1888 -128 0
v -1856 -128 0
v -5504 -192 0
v -5536 -192 0
v -5536 -160 0
v -5504 -160 0
v -5664 -192 0
v -5696 -192 0
v -5696 -160 0
v -5664 -160 0
v -1696 -224 0
v -1728 -224 0
v -1728 -192 0
v -1696 -192 0
v -2208 -224 0
v -2240 -224 0
v -2240 -192 0
v -2208 -192 0
v -2240 -224 0
v -2272 -224 0
v -2272 -192 0
v -2240 -192 0
v -2272 -224 0
v -2304 -224 0
v -2304 -192 0
v -2272 -192 0
v -3488 -224 0
v -3520 -224 0
v -3520 -192 0
v -3488 -192 0
v -3520 -224 0
v -3552 -224 0
v -3552 -192 0
v -3520 -192 0
v -3552 -224 0
v -3584 -224 0
v -3584 -192 0
v -3552 -192 0
v -6144 -224 0
v -6176 -224 0
v -6176 -192 0
v -6144 -192 0
v -6304 -224 0
v -6336 -224 0
v -6336 -192 0
v -6304 -192 0
v -1376 -288 0
v -1408 -288 0
v -1408 -256 0
v -1376 -256 0
v -4192 -288 0
v -4224 -288 0
v -4224 -256 0
v -4192 -256 0
v -4224 -288 0
v -4256 -288 0
v -4256 -256 0
v -4224 -256 0
v -4256 -288 0
v -4288 -288 0
v -4288 -256 0
v -4256 -256 0
v -2432 -320 0
v -2464 -320 0
v -2464 -288 0
v -2432 -288 0
v -2464 -320 0
v -2496 -320 0
v -2496 -288 0
v -2464 -288 0
v -2496 -320 0
v -2528 -320 0
v -2528 -288 0
v -2496 -288 0
v -2624 -320 0
v -2656 -320 0
v -2656 -288 0
v -2624 -288 0
v -2656 -320 0
v -2688 -320 0
v -2688 -288 0
v -2656 -288 0
v -2688 -320 0
v -2720 -320 0
v -2720 -288 0
v -2688 -288 0
v -3680 -320 0
v -3712 -320 0
v -3712 -288 0
v -3680 -288 0
v -3712 -320 0
v -3744 -320 0
v -3744 -288 0
v -3712 -288 0
v -3744 -320 0
v -3776 -320 0
v -3776 -288 0
v -3744 -288 0
v -4960 -320 0
v -4992 -320 0
v -4992 -288 0
v -4960 -288 0
v -4992 -320 0
v -5024 -320 0
v -5024 -288 0
v -4992 -288 0
v -5024 -320 0
v -5056 -320 0
v -5056 -288 0
v -5024 -288 0
v -5664 -320 0
v -5696 -320 0
v -5696 -288 0
v -5664 -288 0
v -5152 -352 0
v -5184 -352 0
v -5184 -320 0
v -5152 -320 0
v -5216 -352 0
v -5248 -352 0
v -5248 -320 0
v -5216 -320 0
v -5440 -352 0
v -5472 -352 0
v -5472 -320 0
v -5440 -320 0
v -5536 -352 0
v -5568 -352 0
v -5568 -320 0
v -5536 -320 0
v -5568 -352 0
v -5600 -352 0
v -5600 -320 0
v -5568 -320 0
v -5600 -352 0
v -5632 -352 0
v -5632 -320 0
v -5600 -320 0
v -5632 -352 0
v -5664 -352 0
v -5664 -320 0
v -5632 -320 0
v -6304 -352 0
v -6336 -352 0
v -6336 -320 0
v -6304 -320 0
v -4384 -384 0
v -4416 -384 0
v -4416 -352 0
v -4384 -352 0
v -4416 -384 0
v -4448 -384 0
v -4448 -352 0
v -4416 -352 0
v -4448 -384 0
v -4480 -384 0
v -4480 -352 0
v -4448 -352 0
v -5280 -384 0
v -5312 -384 0
v -5312 -352 0
v -5280 -352 0
v -5312 -384 0
v -5344 -384 0
v -5344 -352 0
v -5312 -352 0
v -5344 -384 0
v -5376 -384 0
v -5376 -352 0
v -5344 -352 0
v -5504 -384 0
v -5536 -384 0
v -5536 -352 0
v -5504 -352 0
v -5536 -384 0
v -5568 -384 0
v -5568 -352 0
v -5536 -352 0
v -5568 -384 0
v -5600 -384 0
v -5600 -352 0
v -5568 -352 0
v -5600 -384 0
v -5632 -384 0
v -5632 -352 0
v -5600 -352 0
v -5632 -384 0
v -5664 -384 0
v -5664 -352 0
v -5632 -352 0
v -5664 -384 0
v -5696 -384 0
v -5696 -352 0
v -5664 -352 0
v -5760 -384 0
v -5792 -384 0
v -5792 -352 0
v -5760 -352 0
v -5824 -384 0
v -5856 -384 0
v -5856 -352 0
v -5824 -352 0
v -5856 -384 0
v -5888 -384 0
v -5888 -352 0
v -5856 -352 0
v -5888 -384 0
v -5920 -384 0
v -5920 -352 0
v -5888 -352 0
v -6080 -384 0
v -6112 -384 0
v -6112 -352 0
v -6080 -352 0
v -6176 -384 0
v -6208 -384 0
v -6208 -352 0
v -6176 -352 0
v -6208 -384 0
v -6240 -384 0
v -6240 -352 0
v -6208 -352 0
v -6240 -384 0
v -6272 -384 0
v -6272 -352 0
v -6240 -352 0
v -6272 -384 0
v -6304 -384 0
v -6304 -352 0
v -6272 -352 0
v -5920 -416 0
v -5952 -416 0
v -5952 -384 0
v -5920 -384 0
v -5952 -416 0
v -5984 -416 0
v -5984 -384 0
v -5952 -384 0
v -5984 -416 0
v -6016 -416 0
v -6016 -384 0
v -5984 -384 0
v -6144 -416 0
v -6176 -416 0
v -6176 -384 0
v -6144 -384 0
v -6176 -416 0
v -6208 -416 0
v -6208 -384 0
v -6176 -384 0
v -6208 -416 0
v -6240 -416 0
v -6240 -384 0
v -6208 -384 0
v -6240 -416 0
v -6272 -416 0
v -6272 -384 0
v -6240 -384 0
v -6272 -416 0
v -6304 -416 0
v -6304 -384 0
v -6272 -384 0
v -6304 -416 0
v -6336 -416 0
v -6336 -384 0
v -6304 -384 0

# Texture cooridinates (Count = 10)
vt 0.25 0
vt 0.5 0
vt 0.5 1
vt 0.25 1
vt 0 0
vt 0 1
vt 0.75 0
vt 0.75 1
vt 1 0
vt 1 1

# Normal
vn 0 0 -1

# Mesh description
g Level-6_mesh_0002

# Faces
f 1/1/1 2/2/1 3/3/1 4/4/1
f 5/1/1 6/2/1 7/3/1 8/4/1
f 9/1/1 10/2/1 11/3/1 12/4/1
f 13/1/1 14/2/1 15/3/1 16/4/1
f 17/5/1 18/1/1 19/4/1 20/6/1
f 21/1/1 22/2/1 23/3/1 24/4/1
f 25/1/1 26/2/1 27/3/1 28/4/1
f 29/5/1 30/1/1 31/4/1 32/6/1
f 33/1/1 34/2/1 35/3/1 36/4/1
f 37/2/1 38/7/1 39/8/1 40/3/1
f 41/7/1 42/9/1 43/10/1 44/8/1
f 45/1/1 46/2/1 47/3/1 48/4/1
f 49/2/1 50/7/1 51/8/1 52/3/1
f 53/7/1 54/9/1 55/10/1 56/8/1
f 57/1/1 58/2/1 59/3/1 60/4/1
f 61/1/1 62/2/1 63/3/1 64/4/1
f 65/5/1 66/1/1 67/4/1 68/6/1
f 69/1/1 70/2/1 71/3/1 72/4/1
f 73/2/1 74/7/1 75/8/1 76/3/1
f 77/7/1 78/9/1 79/10/1 80/8/1
f 81/1/1 82/2/1 83/3/1 84/4/1
f 85/2/1 86/7/1 87/8/1 88/3/1
f 89/7/1 90/9/1 91/10/1 92/8/1
f 93/1/1 94/2/1 95/3/1 96/4/1
f 97/2/1 98/7/1 99/8/1 100/3/1
f 101/7/1 102/9/1 103/10/1 104/8/1
f 105/1/1 106/2/1 107/3/1 108/4/1
f 109/2/1 110/7/1 111/8/1 112/3/1
f 113/7/1 114/9/1 115/10/1 116/8/1
f 117/5/1 118/1/1 119/4/1 120/6/1
f 121/5/1 122/1/1 123/4/1 124/6/1
f 125/5/1 126/1/1 127/4/1 128/6/1
f 129/1/1 130/2/1 131/3/1 132/4/1
f 133/5/1 134/1/1 135/4/1 136/6/1
f 137/5/1 138/1/1 139/4/1 140/6/1
f 141/1/1 142/2/1 143/3/1 144/4/1
f 145/5/1 146/1/1 147/4/1 148/6/1
f 149/1/1 150/2/1 151/3/1 152/4/1
f 153/2/1 154/7/1 155/8/1 156/3/1
f 157/7/1 158/9/1 159/10/1 160/8/1
f 161/1/1 162/2/1 163/3/1 164/4/1
f 165/1/1 166/2/1 167/3/1 168/4/1
f 169/2/1 170/7/1 171/8/1 172/3/1
f 173/7/1 174/9/1 175/10/1 176/8/1
f 177/1/1 178/2/1 179/3/1 180/4/1
f 181/1/1 182/2/1 183/3/1 184/4/1
f 185/1/1 186/2/1 187/3/1 188/4/1
f 189/5/1 190/1/1 191/4/1 192/6/1
f 193/1/1 194/2/1 195/3/1 196/4/1
f 197/5/1 198/1/1 199/4/1 200/6/1
f 201/1/1 202/2/1 203/3/1 204/4/1
f 205/2/1 206/7/1 207/8/1 208/3/1
f 209/7/1 210/9/1 211/10/1 212/8/1
f 213/1/1 214/2/1 215/3/1 216/4/1
f 217/1/1 218/2/1 219/3/1 220/4/1
f 221/1/1 222/2/1 223/3/1 224/4/1
f 225/1/1 226/2/1 227/3/1 228/4/1
f 229/1/1 230/2/1 231/3/1 232/4/1
f 233/5/1 234/1/1 235/4/1 236/6/1
f 237/1/1 238/2/1 239/3/1 240/4/1
f 241/2/1 242/7/1 243/8/1 244/3/1
f 245/7/1 246/9/1 247/10/1 248/8/1
f 249/1/1 250/2/1 251/3/1 252/4/1
f 253/1/1 254/2/1 255/3/1 256/4/1
f 257/1/1 258/2/1 259/3/1 260/4/1
f 261/5/1 262/1/1 263/4/1 264/6/1
f 265/5/1 266/1/1 267/4/1 268/6/1
f 269/5/1 270/1/1 271/4/1 272/6/1
f 273/1/1 274/2/1 275/3/1 276/4/1
f 277/2/1 278/7/1 279/8/1 280/3/1
f 281/7/1 282/9/1 283/10/1 284/8/1

