# Tiled2Unity generated file. Do not modify by hand.
# Wavefront file for 'Level-6_mesh_0006.obj'

# Vertices (Count = 32)
v -5408 -224 0
v -5440 -224 0
v -5440 -192 0
v -5408 -192 0
v -736 -256 0
v -768 -256 0
v -768 -224 0
v -736 -224 0
v -992 -256 0
v -1024 -256 0
v -1024 -224 0
v -992 -224 0
v -1248 -256 0
v -1280 -256 0
v -1280 -224 0
v -1248 -224 0
v -5184 -256 0
v -5216 -256 0
v -5216 -224 0
v -5184 -224 0
v -6048 -256 0
v -6080 -256 0
v -6080 -224 0
v -6048 -224 0
v -2560 -288 0
v -2592 -288 0
v -2592 -256 0
v -2560 -256 0
v -4896 -320 0
v -4928 -320 0
v -4928 -288 0
v -4896 -288 0

# Texture cooridinates (Count = 4)
vt 0 0
vt 1 0
vt 1 1
vt 0 1

# Normal
vn 0 0 -1

# Mesh description
g Level-6_mesh_0006

# Faces
f 1/1/1 2/2/1 3/3/1 4/4/1
f 5/1/1 6/2/1 7/3/1 8/4/1
f 9/1/1 10/2/1 11/3/1 12/4/1
f 13/1/1 14/2/1 15/3/1 16/4/1
f 17/1/1 18/2/1 19/3/1 20/4/1
f 21/1/1 22/2/1 23/3/1 24/4/1
f 25/1/1 26/2/1 27/3/1 28/4/1
f 29/1/1 30/2/1 31/3/1 32/4/1

