# Tiled2Unity generated file. Do not modify by hand.
# Wavefront file for 'Level-6_mesh_0004.obj'

# Vertices (Count = 40)
v -128 -64 0
v -160 -64 0
v -160 -32 0
v -128 -32 0
v -352 -64 0
v -384 -64 0
v -384 -32 0
v -352 -32 0
v -672 -64 0
v -704 -64 0
v -704 -32 0
v -672 -32 0
v -928 -64 0
v -960 -64 0
v -960 -32 0
v -928 -32 0
v -1184 -64 0
v -1216 -64 0
v -1216 -32 0
v -1184 -32 0
v -64 -256 0
v -96 -256 0
v -96 -224 0
v -64 -224 0
v -288 -256 0
v -320 -256 0
v -320 -224 0
v -288 -224 0
v -512 -256 0
v -544 -256 0
v -544 -224 0
v -512 -224 0
v -4608 -256 0
v -4640 -256 0
v -4640 -224 0
v -4608 -224 0
v -4800 -352 0
v -4832 -352 0
v -4832 -320 0
v -4800 -320 0

# Texture cooridinates (Count = 4)
vt 0 0
vt 1 0
vt 1 1
vt 0 1

# Normal
vn 0 0 -1

# Mesh description
g Level-6_mesh_0004

# Faces
f 1/1/1 2/2/1 3/3/1 4/4/1
f 5/1/1 6/2/1 7/3/1 8/4/1
f 9/1/1 10/2/1 11/3/1 12/4/1
f 13/1/1 14/2/1 15/3/1 16/4/1
f 17/1/1 18/2/1 19/3/1 20/4/1
f 21/1/1 22/2/1 23/3/1 24/4/1
f 25/1/1 26/2/1 27/3/1 28/4/1
f 29/1/1 30/2/1 31/3/1 32/4/1
f 33/1/1 34/2/1 35/3/1 36/4/1
f 37/1/1 38/2/1 39/3/1 40/4/1

