# Tiled2Unity generated file. Do not modify by hand.
# Wavefront file for 'Level-6_mesh_0005.obj'

# Vertices (Count = 16)
v -3840 -192 0
v -3872 -192 0
v -3872 -160 0
v -3840 -160 0
v -4544 -256 0
v -4576 -256 0
v -4576 -224 0
v -4544 -224 0
v -4032 -288 0
v -4064 -288 0
v -4064 -256 0
v -4032 -256 0
v -4736 -352 0
v -4768 -352 0
v -4768 -320 0
v -4736 -320 0

# Texture cooridinates (Count = 4)
vt 0 0
vt 1 0
vt 1 1
vt 0 1

# Normal
vn 0 0 -1

# Mesh description
g Level-6_mesh_0005

# Faces
f 1/1/1 2/2/1 3/3/1 4/4/1
f 5/1/1 6/2/1 7/3/1 8/4/1
f 9/1/1 10/2/1 11/3/1 12/4/1
f 13/1/1 14/2/1 15/3/1 16/4/1

