# Tiled2Unity generated file. Do not modify by hand.
# Wavefront file for 'Level-4_mesh_0002.obj'

# Vertices (Count = 32)
v -448 -64 0
v -480 -64 0
v -480 -32 0
v -448 -32 0
v -1120 -64 0
v -1152 -64 0
v -1152 -32 0
v -1120 -32 0
v -2880 -64 0
v -2912 -64 0
v -2912 -32 0
v -2880 -32 0
v -2720 -96 0
v -2752 -96 0
v -2752 -64 0
v -2720 -64 0
v -224 -160 0
v -256 -160 0
v -256 -128 0
v -224 -128 0
v -2912 -352 0
v -2944 -352 0
v -2944 -320 0
v -2912 -320 0
v -2560 -480 0
v -2592 -480 0
v -2592 -448 0
v -2560 -448 0
v -832 -544 0
v -864 -544 0
v -864 -512 0
v -832 -512 0

# Texture cooridinates (Count = 4)
vt 0 0
vt 1 0
vt 1 1
vt 0 1

# Normal
vn 0 0 -1

# Mesh description
g Level-4_mesh_0002

# Faces
f 1/1/1 2/2/1 3/3/1 4/4/1
f 5/1/1 6/2/1 7/3/1 8/4/1
f 9/1/1 10/2/1 11/3/1 12/4/1
f 13/1/1 14/2/1 15/3/1 16/4/1
f 17/1/1 18/2/1 19/3/1 20/4/1
f 21/1/1 22/2/1 23/3/1 24/4/1
f 25/1/1 26/2/1 27/3/1 28/4/1
f 29/1/1 30/2/1 31/3/1 32/4/1

